<svg width="1342" height="687" viewBox="0 0 1342 687" fill="none" xmlns="http://www.w3.org/2000/svg">
<g id="background">
<g id="under_construction_sign">
<g id="sign_base">
<path id="grass" d="M228.587 665.615C228.833 662.222 231.392 650.338 236.063 645C235.534 646.537 235.104 647.74 234.728 648.793C233.323 652.724 232.665 654.566 230.38 663.855C231.516 661.392 233.46 658.597 237 657.181C233.439 660.965 231.781 663.269 230.904 665.7C232.582 665.819 233.72 666.051 233.72 666.317C233.72 666.705 231.308 667.02 228.333 667.02C225.357 667.02 222.945 666.705 222.945 666.317C222.945 666.041 224.17 665.801 225.952 665.687C221.569 659.323 219.866 658.232 217.451 656.686C216.392 656.007 215.195 655.24 213.574 653.902C220.951 654.621 226.47 661.731 228.558 665.615C228.568 665.615 228.577 665.615 228.587 665.615Z" fill="#057C77"/>
<path id="grass_2" d="M264.951 658.845C266.985 645.588 270.822 624.917 274.78 617C272.373 632.757 270.082 643.958 268.532 651.539C267.392 657.114 266.652 660.731 266.561 662.762C270.696 655.787 279.927 644.828 292 643.65C289.164 645.993 287.069 647.335 285.215 648.523C280.989 651.229 278.008 653.138 270.336 664.276C273.455 664.477 275.6 664.896 275.6 665.38C275.6 666.059 271.378 666.61 266.17 666.61C260.962 666.61 256.74 666.059 256.74 665.38C256.74 664.913 258.733 664.507 261.669 664.299C260.135 660.045 257.233 656.013 251 649.39C257.196 651.868 260.597 656.76 262.587 661.071C258.587 644.813 257.435 641.589 254.977 634.71C254.319 632.866 253.566 630.76 252.64 628.07C259.137 635.495 263.3 650.158 264.951 658.845Z" fill="#057C77"/>
<path id="sign_base_2" d="M232.381 667C232.381 664.025 234.793 661.614 237.767 661.614H253.326C256.301 661.614 258.712 664.025 258.712 667H232.381Z" fill="#057C77"/>
</g>
<g id="sign_body">
<rect id="Rectangle 2" x="245.547" y="439" width="65.8268" height="65.8268" rx="17" transform="rotate(45 245.547 439)" fill="#057C77"/>
<rect id="Rectangle 3" x="245" y="448" width="52.9416" height="52.9416" rx="13" transform="rotate(45 245 448)" fill="#02B1AA"/>
<rect id="Rectangle 4" x="240.782" y="520" width="10" height="143" fill="#057C77"/>
<g id="angular_logo">
<path id="Vector" d="M241.714 488.376H248.286L245 480.469L241.714 488.376Z" fill="#057C77"/>
<path id="Vector_2" d="M245 468L227 474.419L229.746 498.215L245 506.662L260.254 498.215L263 474.419L245 468ZM256.234 497.5H252.039L249.776 491.856H240.224L237.961 497.5H233.766L245 472.273L256.234 497.5Z" fill="#057C77"/>
</g>
</g>
</g>
<path id="grass_3" d="M32.0421 609.002C32.569 601.758 38.031 576.393 48 565C46.8705 568.28 45.9529 570.849 45.1497 573.097C42.1522 581.487 40.7476 585.418 35.8701 605.245C38.2958 599.988 42.4438 594.022 50 591C42.3984 599.077 38.8597 603.993 36.9885 609.182C40.5696 609.436 43 609.931 43 610.5C43 611.328 37.8513 612 31.5 612C25.1487 612 20 611.328 20 610.5C20 609.909 22.6165 609.399 26.4197 609.154C17.0631 595.571 13.4279 593.243 8.27496 589.942L8.27405 589.942C6.01245 588.493 3.45844 586.857 0 584C15.7441 585.536 27.5253 600.712 31.9814 609.001C32.0017 609.001 32.0219 609.002 32.0421 609.002Z" fill="#057C77"/>
<path id="grass_4" d="M365.467 544.262C365.802 539.747 369.188 524.054 375.36 517C374.66 519.034 374.091 520.626 373.593 522.02C371.734 527.222 370.864 529.659 367.839 541.952C369.343 538.692 371.915 534.994 376.6 533.12C371.887 538.128 369.693 541.176 368.533 544.393C370.753 544.55 372.26 544.857 372.26 545.21C372.26 545.724 369.068 546.14 365.13 546.14C361.192 546.14 358 545.724 358 545.21C358 544.764 360.41 544.391 363.625 544.301C363.608 541.974 362.532 540.439 360.704 537.832C360.22 537.141 359.684 536.376 359.1 535.5C362.196 538.001 363.484 539.831 365.467 544.262Z" fill="#057C77"/>
<path id="grass_5" d="M1268.57 555.374C1268.19 550.26 1268.47 539.988 1261.5 532C1263.43 537.397 1267 549.103 1265.89 552.757C1264.19 549.066 1261.29 544.878 1256 542.755C1261.32 548.426 1263.8 551.878 1265.11 555.521C1262.6 555.7 1260.9 556.047 1260.9 556.447C1260.9 557.029 1264.5 557.5 1268.95 557.5C1273.4 557.5 1277 557.029 1277 556.447C1277 555.941 1274.28 555.519 1270.65 555.417C1270.67 552.783 1271.88 551.043 1273.95 548.091C1274.49 547.309 1275.1 546.442 1275.76 545.451C1272.26 548.283 1270.81 550.355 1268.57 555.374Z" fill="#057C77"/>
<path id="grass_6" d="M427.049 679.017C425.015 665.656 423.458 659.822 419.5 651.843C421.907 667.724 421.918 664.013 423.468 671.654C424.608 677.273 425.348 680.918 425.439 682.965C421.304 675.935 421 669.488 412 665.343C415.5 668.343 416.4 669.488 419 674.343C420.5 680.017 421.664 681.843 421.664 684.491C418.545 684.693 416.4 685.115 416.4 685.603C416.4 686.288 420.622 686.843 425.83 686.843C431.038 686.843 435.26 686.288 435.26 685.603C435.26 685.133 433.267 684.724 430.331 684.514C431.865 680.226 434.767 676.163 441 669.488C434.804 671.986 431.403 676.915 429.413 681.26C433.413 664.875 434.565 661.625 437.023 654.692C437.681 652.834 438.434 650.711 439.36 648C432.863 655.484 428.7 670.262 427.049 679.017Z" fill="#057C77"/>
<g id="hook_base">
<path d="M918.691 -36.463H939.2V464H918.691V-36.463Z" fill="#02A7A0"/>
<path d="M1034.91 -36.463H1046.87V464H1034.91V-36.463Z" fill="#02A7A0"/>
<path d="M997.309 -36.463H1017.82V414.593H997.309V-36.463Z" fill="#02A7A0"/>
<path d="M911 350.704H1052V464H911V350.704Z" fill="#02A7A0"/>
<path d="M927.236 343.764L1001.86 296.702L1008.42 300.84L933.797 347.902L927.236 343.764Z" fill="#02A7A0"/>
<path d="M927.236 291.802L1001.86 244.74L1008.42 248.877L933.797 295.939L927.236 291.802Z" fill="#02A7A0"/>
<path d="M927.236 239.839L1001.86 192.777L1008.42 196.914L933.797 243.976L927.236 239.839Z" fill="#02A7A0"/>
<path d="M927.236 188.727L1001.86 141.665L1008.42 145.803L933.797 192.865L927.236 188.727Z" fill="#02A7A0"/>
<path d="M927.236 138.468L1001.86 91.406L1008.42 95.5433L933.797 142.605L927.236 138.468Z" fill="#02A7A0"/>
<path d="M927.236 87.3569L1001.86 40.2949L1008.42 44.4322L933.797 91.4942L927.236 87.3569Z" fill="#02A7A0"/>
<path d="M933.797 296.185L1008.42 343.247L1001.86 347.385L927.236 300.323L933.797 296.185Z" fill="#02A7A0"/>
<path d="M933.797 244.222L1008.42 291.284L1001.86 295.422L927.236 248.36L933.797 244.222Z" fill="#02A7A0"/>
<path d="M933.797 192.259L1008.42 239.321L1001.86 243.459L927.236 196.397L933.797 192.259Z" fill="#02A7A0"/>
<path d="M933.797 141.148L1008.42 188.21L1001.86 192.348L927.236 145.285L933.797 141.148Z" fill="#02A7A0"/>
<path d="M933.797 90.8888L1008.42 137.951L1001.86 142.088L927.236 95.0261L933.797 90.8888Z" fill="#02A7A0"/>
<path d="M933.797 39.7777L1008.42 86.8397L1001.86 90.977L927.236 43.915L933.797 39.7777Z" fill="#02A7A0"/>
<path d="M1012.42 303.284L1015.14 298.741L1040.89 341.901L1038.18 346.444L1012.42 303.284Z" fill="#02A7A0"/>
<path d="M1012.42 250.47L1015.14 245.926L1040.89 289.086L1038.18 293.63L1012.42 250.47Z" fill="#02A7A0"/>
<path d="M1013.81 197.655L1016.52 193.111L1042.28 236.271L1039.57 240.815L1013.81 197.655Z" fill="#02A7A0"/>
<path d="M1012.42 144.84L1015.14 140.296L1040.89 183.457L1038.18 188L1012.42 144.84Z" fill="#02A7A0"/>
<path d="M1012.42 95.4324L1015.14 90.8888L1040.89 134.049L1038.18 138.592L1012.42 95.4324Z" fill="#02A7A0"/>
<path d="M1012.42 46.025L1015.14 41.4814L1040.89 84.6415L1038.18 89.1851L1012.42 46.025Z" fill="#02A7A0"/>
<path d="M1013.69 346.445L1010.98 341.901L1036.74 298.741L1039.45 303.284L1013.69 346.445Z" fill="#02A7A0"/>
<path d="M1013.69 293.63L1010.98 289.086L1036.74 245.926L1039.45 250.47L1013.69 293.63Z" fill="#02A7A0"/>
<path d="M1013.69 240.815L1010.98 236.271L1036.74 193.111L1039.45 197.655L1013.69 240.815Z" fill="#02A7A0"/>
<path d="M1013.69 188L1010.98 183.457L1036.74 140.296L1039.45 144.84L1013.69 188Z" fill="#02A7A0"/>
<path d="M1013.69 138.593L1010.98 134.049L1036.74 90.8888L1039.45 95.4324L1013.69 138.593Z" fill="#02A7A0"/>
<path d="M1013.69 89.1851L1010.98 84.6415L1036.74 41.4815L1039.45 46.025L1013.69 89.1851Z" fill="#02A7A0"/>
<path d="M927.236 34.7886L1001.86 -12.2734L1008.42 -8.13612L933.797 38.9259L927.236 34.7886Z" fill="#02A7A0"/>
<path d="M933.797 -12.7906L1008.42 34.2714L1001.86 38.4087L927.236 -8.65327L933.797 -12.7906Z" fill="#02A7A0"/>
<path d="M1012.42 -6.54329L1015.14 -11.0869L1040.89 32.0732L1038.18 36.6168L1012.42 -6.54329Z" fill="#02A7A0"/>
<path d="M1013.69 36.6168L1010.98 32.0732L1036.74 -11.0869L1039.45 -6.54327L1013.69 36.6168Z" fill="#02A7A0"/>
<path d="M927.236 -17.4208L1001.86 -64.4828L1008.42 -60.3455L933.797 -13.2835L927.236 -17.4208Z" fill="#02A7A0"/>
<path d="M933.797 -65L1008.42 -17.938L1001.86 -13.8007L927.236 -60.8627L933.797 -65Z" fill="#02A7A0"/>
<path d="M1012.42 -58.7527L1015.14 -63.2963L1040.89 -20.1362L1038.18 -15.5926L1012.42 -58.7527Z" fill="#02A7A0"/>
<path d="M1013.69 -15.5926L1010.98 -20.1362L1036.74 -63.2963L1039.45 -58.7527L1013.69 -15.5926Z" fill="#02A7A0"/>
</g>
<path id="cone" d="M364.778 635L367.833 647H372.5C374.985 647 377 649.015 377 651.5C377 653.985 374.985 656 372.5 656H326.5C324.015 656 322 653.985 322 651.5C322 649.015 324.015 647 326.5 647H331.167L334.222 635H364.778ZM358.667 614L361.722 626H337.278L340.333 614H358.667ZM352.556 593L355.611 605H343.389L346.444 593H352.556Z" fill="#02716C"/>
<path id="cone_2" d="M988.778 599L991.833 611H996.5C998.985 611 1001 613.015 1001 615.5C1001 617.985 998.985 620 996.5 620H950.5C948.015 620 946 617.985 946 615.5C946 613.015 948.015 611 950.5 611H955.167L958.222 599H988.778ZM982.667 578L985.722 590H961.278L964.333 578H982.667ZM976.556 557L979.611 569H967.389L970.444 557H976.556Z" fill="#02716C"/>
<path id="grass_7" d="M1121.95 611.845C1123.99 598.588 1127.82 577.917 1131.78 570C1129.37 585.757 1127.08 596.958 1125.53 604.539C1124.39 610.114 1123.65 613.731 1123.56 615.762C1127.7 608.787 1136.93 597.828 1149 596.65C1146.16 598.993 1144.07 600.335 1142.21 601.523C1137.99 604.229 1135.01 606.138 1127.34 617.276C1130.45 617.477 1132.6 617.896 1132.6 618.38C1132.6 619.059 1128.38 619.61 1123.17 619.61C1117.96 619.61 1113.74 619.059 1113.74 618.38C1113.74 617.913 1115.73 617.507 1118.67 617.299C1117.13 613.045 1114.23 609.013 1108 602.39C1114.2 604.868 1117.6 609.76 1119.59 614.071C1115.59 597.813 1114.44 594.589 1111.98 587.71C1111.32 585.866 1110.57 583.76 1109.64 581.07C1116.14 588.495 1120.3 603.158 1121.95 611.845Z" fill="#057C77"/>
<g id="clouds">
<path id="front_cloud" d="M1250.61 148.304C1264.86 147.029 1272.84 164.259 1261.88 173H1179.77C1169.21 156.699 1182.24 135.004 1201.3 139.214C1216.57 116.631 1244.87 128.73 1250.61 148.304H1250.61Z" fill="#02A7A0"/>
<path id="front_cloud_2" d="M246.612 56.304C260.862 55.0293 268.837 72.2592 257.885 81H175.773C165.211 64.6985 178.242 43.0035 197.295 47.2137C212.571 24.631 240.867 36.7303 246.611 56.304H246.612Z" fill="#02A7A0"/>
<path id="back_cloud" d="M103.294 155.283C113.473 154.369 119.169 166.729 111.346 173H52.6953C45.1505 161.305 54.4587 145.742 68.068 148.762C78.9795 132.561 99.1904 141.241 103.293 155.283H103.294Z" fill="#02A7A0"/>
<path id="back_cloud_2" d="M1330.29 57.2833C1340.47 56.3688 1346.17 68.7294 1338.35 75H1279.7C1272.15 63.3055 1281.46 47.7417 1295.07 50.762C1305.98 34.5613 1326.19 43.2413 1330.29 57.2833H1330.29Z" fill="#02A7A0"/>
<path id="back_cloud_3" d="M435.815 185.041C443.802 184.321 448.271 194.06 442.133 199H396.115C390.195 189.786 397.498 177.524 408.176 179.903C416.738 167.139 432.596 173.978 435.815 185.041H435.815Z" fill="#02A7A0"/>
</g>
</g>
</svg>
