<svg width="414" height="345" viewBox="0 0 414 345" fill="none" xmlns="http://www.w3.org/2000/svg">
<g id="desktop">
<g id="screen">
<path id="margin" d="M2 245V246H3H412H413V245V19.0282C413 9.07208 404.934 1 394.983 1H20.0174C10.0661 1 2 9.07207 2 19.0282V245ZM21.6792 227.696V17.7508H393.256V227.696H21.6792Z" fill="black" stroke="#6C6C6C" stroke-width="2"/>
</g>
<path id="Rectangle 1" d="M1 246H414V265C414 275.493 405.493 284 395 284H20C9.50659 284 1 275.493 1 265V246Z" fill="url(#paint0_linear)"/>
<ellipse id="Ellipse 5" cx="207" cy="331" rx="205" ry="6" fill="url(#paint1_linear)" fill-opacity="0.24"/>
<g id="Vector 1" filter="url(#filter0_d)">
<path d="M246.903 283.895H167.394C166.055 294.068 163.378 315.377 163.378 319.232C163.378 323.087 160.969 324.586 159.764 324.854C157.756 325.389 152.617 326.781 148.119 328.066C143.622 329.351 147.316 330.476 149.725 330.877H266.178C270.032 330.877 268.855 328.736 267.784 327.665C266.847 327.397 263.608 326.621 258.146 325.657C252.685 324.693 251.052 320.437 250.918 318.429L246.903 283.895Z" fill="url(#paint2_linear)"/>
</g>
</g>
<defs>
<filter id="filter0_d" x="138" y="277.895" width="142.831" height="66.9825" filterUnits="userSpaceOnUse" color-interpolation-filters="sRGB">
<feFlood flood-opacity="0" result="BackgroundImageFix"/>
<feColorMatrix in="SourceAlpha" type="matrix" values="0 0 0 0 0 0 0 0 0 0 0 0 0 0 0 0 0 0 127 0"/>
<feOffset dx="2" dy="4"/>
<feGaussianBlur stdDeviation="5"/>
<feColorMatrix type="matrix" values="0 0 0 0 0 0 0 0 0 0 0 0 0 0 0 0 0 0 0.25 0"/>
<feBlend mode="normal" in2="BackgroundImageFix" result="effect1_dropShadow"/>
<feBlend mode="normal" in="SourceGraphic" in2="effect1_dropShadow" result="shape"/>
</filter>
<linearGradient id="paint0_linear" x1="330.728" y1="226.683" x2="158.112" y2="309.689" gradientUnits="userSpaceOnUse">
<stop stop-color="#D9DADC"/>
<stop offset="1" stop-color="#A3A4A8"/>
</linearGradient>
<linearGradient id="paint1_linear" x1="412" y1="331" x2="2" y2="331" gradientUnits="userSpaceOnUse">
<stop stop-opacity="0"/>
<stop offset="0.49106"/>
<stop offset="1" stop-opacity="0"/>
</linearGradient>
<linearGradient id="paint2_linear" x1="207.416" y1="283.895" x2="207.416" y2="330.877" gradientUnits="userSpaceOnUse">
<stop stop-color="#898A8E"/>
<stop offset="0.681857" stop-color="#EDEDED"/>
<stop offset="0.836765" stop-color="#757776"/>
<stop offset="0.968744" stop-color="#9FA0A2"/>
<stop offset="1" stop-color="#D7D7D7"/>
</linearGradient>
</defs>
</svg>
