<svg width="328" height="543" viewBox="0 0 328 543" fill="none" xmlns="http://www.w3.org/2000/svg">
<g id="full_hook">
<g id="hook">
<path d="M147.052 320.5C150.434 334.304 195.052 346 182.052 288H173.552C186.5 336 150.115 326.916 152.052 312C154 297 143.5 306 147.052 320.5Z" fill="#057C77"/>
<path d="M142 239H189V288H142V239Z" fill="#057C77"/>
<path d="M145 -93H153V239H145V-93Z" fill="#057C77"/>
<path d="M162 -93H170V239H162V-93Z" fill="#057C77"/>
<path d="M179 -93H187V239H179V-93Z" fill="#057C77"/>
</g>
<g id="Vector">
<path d="M155.165 313.566L162.904 318.161L129.389 374.597L121.65 370.002L155.165 313.566Z" fill="#057C77"/>
<path d="M208.542 369.256L200.747 373.756L167.185 315.625L174.98 311.125L208.542 369.256Z" fill="#057C77"/>
<path d="M170 371H161L161 315L170 315L170 371Z" fill="#057C77"/>
</g>
<g id="website">
<rect id="Rectangle 5" y="355" width="328" height="188" rx="20" fill="#F2F2F2"/>
<g id="Group 1">
<path id="Rectangle 6" d="M0 372C0 362.611 7.61116 355 17 355H311C320.389 355 328 362.611 328 372H0Z" fill="#D9D9D9"/>
<circle id="Ellipse 6" cx="14.5" cy="364.5" r="3.5" fill="#FC6969"/>
<circle id="Ellipse 7" cx="26.5" cy="364.5" r="3.5" fill="#FBE62C"/>
<circle id="Ellipse 8" cx="38.5" cy="364.5" r="3.5" fill="#5AF08D"/>
<rect id="Rectangle 7" x="77" y="360" width="194" height="8" rx="4" fill="#ECECEC"/>
</g>
<rect id="Rectangle 8" x="26" y="389" width="60" height="92" rx="10" fill="#005B59"/>
<rect id="Rectangle 10" x="95" y="389" width="132" height="92" rx="10" fill="#72E0AB"/>
<rect id="Rectangle 9" x="26" y="489" width="201" height="32" rx="10" fill="#BB6688"/>
</g>
</g>
</svg>
