<svg width="230" height="239" viewBox="0 0 230 239" fill="none" xmlns="http://www.w3.org/2000/svg">
<g id="motostiv">
<path id="body" d="M101.694 169.811C101.694 164.381 106.096 159.979 111.526 159.979H117.82C121.383 159.979 124.271 162.867 124.271 166.43C124.271 169.992 127.159 172.88 130.722 172.88H183.134C186.696 172.88 189.585 169.992 189.585 166.43C189.585 162.867 192.473 159.979 196.035 159.979H212.344C222.041 159.979 229.901 167.84 229.901 177.536V215.616H101.694V169.811Z" fill="#02716C"/>
<g id="wheel1">
<path id="wheel1_2" d="M173.466 205.01C173.466 223.646 158.359 238.753 139.724 238.753C121.088 238.753 105.981 223.646 105.981 205.01C105.981 186.375 121.088 171.268 139.724 171.268C158.359 171.268 173.466 186.375 173.466 205.01Z" fill="#039D97"/>
<path id="Ellipse 11" d="M139.724 186.693C130.14 186.693 122.37 194.462 122.37 204.046C122.37 208.973 124.423 213.42 127.721 216.579" stroke="white" stroke-width="3" stroke-miterlimit="5.49776" stroke-linecap="round" stroke-linejoin="round"/>
</g>
<g id="wheel2">
<circle id="Ellipse 10" cx="202.486" cy="217.229" r="21.7711" fill="#039D97"/>
<path id="Ellipse 12" d="M198.454 226.839C203.468 229.734 209.943 227.905 212.916 222.755C214.445 220.107 214.751 217.097 214.006 214.403" stroke="white" stroke-width="3" stroke-miterlimit="5.49776" stroke-linecap="round" stroke-linejoin="round"/>
</g>
<path id="ramp" d="M85.4349 0H97.662V224.968H85.4349V0Z" fill="#02716C"/>
<g id="platform">
<rect id="Rectangle 14" y="214" width="89" height="11" fill="#02716C"/>
<rect id="Rectangle 15" x="89" y="105" width="120" height="15" transform="rotate(90 89 105)" fill="#02716C"/>
</g>
<rect id="orange_item" x="1" y="81" width="69" height="132" rx="10" fill="#FFA17A"/>
<g id="Vector">
<path fill-rule="evenodd" clip-rule="evenodd" d="M142.028 73.7007C134.191 73.7007 127.489 79.334 126.141 87.0536L114.033 156.399C112.311 166.265 119.904 175.299 129.92 175.299H183.304C192.21 175.299 199.431 168.079 199.431 159.173V89.8274C199.431 80.9209 192.21 73.7007 183.304 73.7007H142.028ZM147.033 80.1514C139.123 80.1514 132.38 85.8886 131.114 93.6967L129.5 105.5H135.306C138.324 105.5 140.654 108.154 140.264 111.147L140.068 112.647C139.743 115.137 137.621 117 135.11 117H128L121.831 150.947C120.24 160.755 127.813 169.655 137.749 169.655H163.145C163.145 166.832 163.145 163.38 163.145 159.225C163.145 153.702 167.623 149.224 173.145 149.224H191.367V96.2781C191.367 87.3716 184.147 80.1514 175.24 80.1514H147.033Z" fill="#008F8A"/>
<path d="M186.102 114H190.391V147.866H158.541C156.091 147.866 154.106 145.881 154.106 143.431C154.106 140.982 156.091 138.996 158.541 138.996H179.102V121C179.102 117.134 182.236 114 186.102 114Z" fill="#008F8A"/>
<path d="M177 93C177 98.5228 172.523 103 167 103C161.477 103 157 98.5228 157 93C157 87.4771 161.477 83 167 83C172.523 83 177 87.4771 177 93Z" fill="#008F8A"/>
<path d="M164 108C164 105.791 165.791 104 168 104H169C171.761 104 174 106.239 174 109V133C174 135.761 171.761 138 169 138H150.5V162.25C150.5 164.597 148.597 166.5 146.25 166.5C143.903 166.5 142 164.597 142 162.25V135.5C142 132.739 144.239 130.5 147 130.5H164V116.5H146.25C143.903 116.5 142 114.597 142 112.25C142 109.903 143.903 108 146.25 108H164Z" fill="#008F8A"/>
<path d="M178 89C178 91.02 178 89.5 178 94.5C173 94.5 159.8 94.5 156 94.5C153.5 94.5 153.5 94.5 152.5 94.5C154 93 155 93.5 156 89C156.958 84.6869 160.925 81 167 81C173.075 81 178 84.5817 178 89Z" fill="#008F8A"/>
</g>
</g>
</svg>
