<?xml version="1.0" standalone="no"?>
<!DOCTYPE svg PUBLIC "-//W3C//DTD SVG 20010904//EN"
 "http://www.w3.org/TR/2001/REC-SVG-20010904/DTD/svg10.dtd">
<svg version="1.0" xmlns="http://www.w3.org/2000/svg"
 width="704.000000pt" height="704.000000pt" viewBox="0 0 704.000000 704.000000"
 preserveAspectRatio="xMidYMid meet">
<metadata>
Created by potrace 1.11, written by Peter Selinger 2001-2013
</metadata>
<g transform="translate(0.000000,704.000000) scale(0.100000,-0.100000)"
fill="#000000" stroke="none">
<path d="M2009 6705 c-3 -2 -106 -6 -229 -9 -215 -5 -254 -8 -310 -21 -14 -3
-38 -8 -55 -11 -44 -9 -60 -12 -60 -14 0 -1 -13 -4 -30 -6 -38 -7 -192 -64
-275 -104 -361 -171 -663 -494 -810 -865 -18 -44 -34 -87 -36 -95 -2 -8 -15
-57 -28 -108 -32 -123 -43 -198 -49 -337 l-2 -60 1030 -1 c567 0 1048 -4 1070
-8 84 -15 224 -68 233 -88 2 -5 10 -8 19 -8 8 0 51 -37 96 -82 99 -100 150
-190 183 -323 5 -16 9 -966 11 -2110 1 -1144 2 -2091 3 -2104 l0 -24 98 6 c53
4 107 8 119 11 11 2 43 8 70 12 26 5 50 8 53 9 8 1 124 37 140 43 8 3 17 6 20
7 3 1 18 7 33 13 16 7 32 12 36 12 33 0 351 192 351 212 0 4 5 8 11 8 17 0
168 147 220 215 13 17 26 32 29 35 12 11 60 79 60 85 0 3 5 11 10 18 20 24 59
87 54 87 -3 0 3 12 14 27 38 56 123 289 138 382 6 36 17 83 23 101 10 29 10
3923 0 3985 -6 33 -12 74 -15 90 -2 17 -8 41 -13 55 -9 23 -23 82 -22 87 1 3
-29 72 -64 147 -111 242 -318 455 -565 583 -90 47 -254 105 -330 117 -19 4
-46 9 -60 13 -23 5 -506 14 -770 13 -58 -1 -116 0 -130 0 -14 1 -32 1 -40 1
-54 -2 -215 1 -220 4 -4 3 -9 3 -11 0z"/>
<path d="M4035 6702 c-3 -3 -28 -4 -56 -3 l-52 1 89 -59 c108 -72 245 -206
326 -319 118 -163 209 -379 233 -552 3 -25 8 -52 10 -60 2 -8 7 -40 10 -70 3
-30 8 -66 10 -80 6 -35 15 -255 16 -382 l2 -105 471 2 c432 2 514 5 586 20 14
3 41 8 60 11 37 5 221 59 255 74 186 82 298 145 416 236 65 50 196 177 252
244 20 25 41 50 47 57 54 65 169 270 217 389 22 53 64 188 65 211 2 13 5 23 8
23 3 0 6 8 7 18 1 21 12 99 18 132 3 14 7 67 10 118 l5 92 -32 1 c-18 1 -37 1
-42 0 -4 -1 -182 -1 -395 -1 -212 1 -393 1 -401 1 -8 0 -28 -1 -45 0 -31 0
-47 0 -67 -2 -7 -1 -60 -1 -118 0 -58 0 -112 0 -120 0 -24 -1 -546 0 -655 2
-55 1 -107 1 -115 1 -88 -3 -783 -1 -788 2 -4 2 -16 0 -27 -4 -11 -4 -32 -4
-46 0 -15 4 -31 5 -38 1 -6 -4 -34 -4 -61 -1 -28 4 -52 4 -55 2z"/>
</g>
</svg>
