<svg viewBox="0 0 147 60" fill="none" xmlns="http://www.w3.org/2000/svg">
<path d="M43.9947 0.626316C43.9947 6.24218 39.4422 10.7947 33.8263 10.7947L28.8818 10.7947C28.8818 10.7947 28.983 7.27814 28.3184 5.28684C27.1872 1.89737 24.5053 0.626315 24.5053 0.626315L43.9947 0.626316Z" fill="url(#paint0_linear)"/>
<path d="M18.6715 0.626373C23.0634 0.626373 26.6237 4.18671 26.6237 8.5786V31.1316C26.6237 36.2795 22.4505 40.4527 17.3026 40.4527V14.7948C17.3026 12.5857 15.5118 10.7948 13.3026 10.7948H0.77895C0.77895 5.17893 5.33151 0.626373 10.9474 0.626373L18.6715 0.626373Z" fill="url(#paint1_linear)"/>
<path d="M44.0793 20.2428C44.8984 19.1977 45.9576 18.4209 47.2569 17.9125C48.5845 17.3759 50.0956 17.1075 51.7904 17.1075V24.3525C51.056 24.2678 50.4487 24.2254 49.9685 24.2254C48.2455 24.2254 46.8898 24.6915 45.9012 25.6236C44.9408 26.5557 44.4606 27.9821 44.4606 29.9028V32.4025C44.4606 36.8484 40.8565 40.4525 36.4106 40.4525V17.4888H44.0793V20.2428Z" fill="white"/>
<path d="M55.1123 25.5388C55.1123 21.0929 58.7164 17.4888 63.1623 17.4888V32.4025C63.1623 36.8484 59.5582 40.4525 55.1123 40.4525V25.5388ZM59.1373 14.9467C57.6685 14.9467 56.4822 14.5372 55.5784 13.718C54.6745 12.8989 54.2226 11.8821 54.2226 10.6675C54.2226 9.45296 54.6745 8.43612 55.5784 7.617C56.4822 6.79787 57.6685 6.38831 59.1373 6.38831C60.6061 6.38831 61.7924 6.78375 62.6963 7.57463C63.6001 8.33726 64.0521 9.32586 64.0521 10.5404C64.0521 11.8115 63.6001 12.8707 62.6963 13.718C61.7924 14.5372 60.6061 14.9467 59.1373 14.9467Z" fill="white"/>
<path d="M82.8415 17.1075C84.9316 17.1075 86.8241 17.5877 88.5188 18.548C90.2418 19.5084 91.5976 20.8924 92.5862 22.7002C93.603 24.4796 94.1115 26.5557 94.1115 28.9283C94.1115 31.3009 93.603 33.3911 92.5862 35.1988C91.5976 37.0066 90.2418 38.4047 88.5188 39.3933C86.8241 40.3537 84.9316 40.8338 82.8415 40.8338C79.8192 40.8338 77.5595 39.9441 76.0625 38.1646V40.4525H68.3938V17.0652C68.3938 12.6193 71.9979 9.01515 76.4438 9.01515V19.4802C77.9973 17.8984 80.1299 17.1075 82.8415 17.1075ZM81.1467 34.4362C82.559 34.4362 83.7171 33.956 84.6209 32.9957C85.5248 32.0071 85.9767 30.6513 85.9767 28.9283C85.9767 27.2336 85.5248 25.906 84.6209 24.9457C83.7171 23.9853 82.559 23.5052 81.1467 23.5052C79.7344 23.5052 78.5764 23.9853 77.6725 24.9457C76.7686 25.906 76.3167 27.2336 76.3167 28.9283C76.3167 30.6513 76.7686 32.0071 77.6725 32.9957C78.5764 33.956 79.7344 34.4362 81.1467 34.4362Z" fill="white"/>
<path d="M122.003 17.4888V40.4525H114.334V37.9952C113.487 38.9273 112.47 39.6334 111.284 40.1136C110.098 40.5938 108.841 40.8338 107.513 40.8338C104.547 40.8338 102.175 39.9582 100.395 38.207C98.644 36.4558 97.7684 33.8289 97.7684 30.3265V25.5388C97.7684 21.0929 101.372 17.4888 105.818 17.4888V29.0131C105.818 30.736 106.143 31.993 106.793 32.7838C107.442 33.5747 108.389 33.9702 109.632 33.9702C110.903 33.9702 111.934 33.5323 112.724 32.6567C113.544 31.7529 113.953 30.383 113.953 28.547V17.4888H122.003Z" fill="white"/>
<path d="M135.535 40.8338C133.614 40.8338 131.722 40.622 129.857 40.1983C127.993 39.7464 126.496 39.1673 125.366 38.4612L127.781 32.9533C128.827 33.603 130.069 34.1255 131.51 34.5209C132.95 34.8881 134.377 35.0717 135.789 35.0717C137.088 35.0717 138.006 34.9446 138.543 34.6904C139.108 34.408 139.39 34.0125 139.39 33.5041C139.39 32.9957 139.051 32.6426 138.374 32.4449C137.724 32.2189 136.679 32.0071 135.238 31.8094C133.402 31.5834 131.835 31.2868 130.535 30.9196C129.264 30.5524 128.163 29.8745 127.231 28.8859C126.299 27.8973 125.832 26.5133 125.832 24.7338C125.832 23.2651 126.27 21.9658 127.146 20.8359C128.022 19.6779 129.293 18.774 130.959 18.1244C132.654 17.4465 134.673 17.1075 137.018 17.1075C138.684 17.1075 140.337 17.277 141.975 17.6159C143.613 17.9549 144.983 18.4351 146.085 19.0565L143.67 24.522C141.636 23.3922 139.433 22.8273 137.06 22.8273C135.789 22.8273 134.857 22.9826 134.264 23.2933C133.671 23.5758 133.374 23.9571 133.374 24.4373C133.374 24.9739 133.699 25.3552 134.349 25.5812C134.998 25.7789 136.072 25.9908 137.569 26.2167C139.461 26.4992 141.029 26.824 142.271 27.1912C143.514 27.5584 144.588 28.2363 145.491 29.2249C146.424 30.1852 146.89 31.541 146.89 33.2923C146.89 34.7328 146.452 36.0321 145.576 37.1902C144.701 38.32 143.401 39.2097 141.678 39.8594C139.984 40.509 137.936 40.8338 135.535 40.8338Z" fill="white"/>
<path d="M18.8452 50.0242H16.3852V49.3842H22.0452V50.0242H19.5852V56.3842H18.8452V50.0242ZM32.3774 55.7442V56.3842H27.4274V49.3842H32.2274V50.0242H28.1674V52.5142H31.7874V53.1442H28.1674V55.7442H32.3774ZM41.3178 56.4442C40.6245 56.4442 39.9978 56.2909 39.4378 55.9842C38.8845 55.6775 38.4478 55.2542 38.1278 54.7142C37.8145 54.1675 37.6578 53.5575 37.6578 52.8842C37.6578 52.2109 37.8145 51.6042 38.1278 51.0642C38.4478 50.5175 38.8878 50.0909 39.4478 49.7842C40.0078 49.4775 40.6345 49.3242 41.3278 49.3242C41.8478 49.3242 42.3278 49.4109 42.7678 49.5842C43.2078 49.7575 43.5812 50.0109 43.8878 50.3442L43.4178 50.8142C42.8712 50.2609 42.1812 49.9842 41.3478 49.9842C40.7945 49.9842 40.2912 50.1109 39.8378 50.3642C39.3845 50.6175 39.0278 50.9642 38.7678 51.4042C38.5145 51.8442 38.3878 52.3375 38.3878 52.8842C38.3878 53.4309 38.5145 53.9242 38.7678 54.3642C39.0278 54.8042 39.3845 55.1509 39.8378 55.4042C40.2912 55.6575 40.7945 55.7842 41.3478 55.7842C42.1878 55.7842 42.8778 55.5042 43.4178 54.9442L43.8878 55.4142C43.5812 55.7475 43.2045 56.0042 42.7578 56.1842C42.3178 56.3575 41.8378 56.4442 41.3178 56.4442ZM55.5153 49.3842V56.3842H54.7853V53.1542H50.4053V56.3842H49.6653V49.3842H50.4053V52.5042H54.7853V49.3842H55.5153ZM67.8501 49.3842V56.3842H67.2401L62.7401 50.7042V56.3842H62.0001V49.3842H62.6101L67.1201 55.0642V49.3842H67.8501ZM77.3949 56.4442C76.7015 56.4442 76.0715 56.2909 75.5049 55.9842C74.9449 55.6709 74.5049 55.2442 74.1849 54.7042C73.8715 54.1642 73.7149 53.5575 73.7149 52.8842C73.7149 52.2109 73.8715 51.6042 74.1849 51.0642C74.5049 50.5242 74.9449 50.1009 75.5049 49.7942C76.0715 49.4809 76.7015 49.3242 77.3949 49.3242C78.0882 49.3242 78.7115 49.4775 79.2649 49.7842C79.8249 50.0909 80.2649 50.5175 80.5849 51.0642C80.9049 51.6042 81.0649 52.2109 81.0649 52.8842C81.0649 53.5575 80.9049 54.1675 80.5849 54.7142C80.2649 55.2542 79.8249 55.6775 79.2649 55.9842C78.7115 56.2909 78.0882 56.4442 77.3949 56.4442ZM77.3949 55.7842C77.9482 55.7842 78.4482 55.6609 78.8949 55.4142C79.3415 55.1609 79.6915 54.8142 79.9449 54.3742C80.1982 53.9275 80.3249 53.4309 80.3249 52.8842C80.3249 52.3375 80.1982 51.8442 79.9449 51.4042C79.6915 50.9575 79.3415 50.6109 78.8949 50.3642C78.4482 50.1109 77.9482 49.9842 77.3949 49.9842C76.8415 49.9842 76.3382 50.1109 75.8849 50.3642C75.4382 50.6109 75.0849 50.9575 74.8249 51.4042C74.5715 51.8442 74.4449 52.3375 74.4449 52.8842C74.4449 53.4309 74.5715 53.9275 74.8249 54.3742C75.0849 54.8142 75.4382 55.1609 75.8849 55.4142C76.3382 55.6609 76.8415 55.7842 77.3949 55.7842ZM86.9235 49.3842H87.6635V55.7442H91.5835V56.3842H86.9235V49.3842ZM99.9355 56.4442C99.2421 56.4442 98.6121 56.2909 98.0455 55.9842C97.4855 55.6709 97.0455 55.2442 96.7255 54.7042C96.4121 54.1642 96.2555 53.5575 96.2555 52.8842C96.2555 52.2109 96.4121 51.6042 96.7255 51.0642C97.0455 50.5242 97.4855 50.1009 98.0455 49.7942C98.6121 49.4809 99.2421 49.3242 99.9355 49.3242C100.629 49.3242 101.252 49.4775 101.805 49.7842C102.365 50.0909 102.805 50.5175 103.125 51.0642C103.445 51.6042 103.605 52.2109 103.605 52.8842C103.605 53.5575 103.445 54.1675 103.125 54.7142C102.805 55.2542 102.365 55.6775 101.805 55.9842C101.252 56.2909 100.629 56.4442 99.9355 56.4442ZM99.9355 55.7842C100.489 55.7842 100.989 55.6609 101.435 55.4142C101.882 55.1609 102.232 54.8142 102.485 54.3742C102.739 53.9275 102.865 53.4309 102.865 52.8842C102.865 52.3375 102.739 51.8442 102.485 51.4042C102.232 50.9575 101.882 50.6109 101.435 50.3642C100.989 50.1109 100.489 49.9842 99.9355 49.9842C99.3821 49.9842 98.8788 50.1109 98.4255 50.3642C97.9788 50.6109 97.6255 50.9575 97.3655 51.4042C97.1121 51.8442 96.9855 52.3375 96.9855 52.8842C96.9855 53.4309 97.1121 53.9275 97.3655 54.3742C97.6255 54.8142 97.9788 55.1609 98.4255 55.4142C98.8788 55.6609 99.3821 55.7842 99.9355 55.7842ZM114.394 52.8842H115.104V55.5542C114.777 55.8409 114.391 56.0609 113.944 56.2142C113.497 56.3675 113.027 56.4442 112.534 56.4442C111.834 56.4442 111.204 56.2909 110.644 55.9842C110.084 55.6775 109.644 55.2542 109.324 54.7142C109.004 54.1675 108.844 53.5575 108.844 52.8842C108.844 52.2109 109.004 51.6042 109.324 51.0642C109.644 50.5175 110.084 50.0909 110.644 49.7842C111.204 49.4775 111.837 49.3242 112.544 49.3242C113.077 49.3242 113.567 49.4109 114.014 49.5842C114.461 49.7509 114.837 50.0009 115.144 50.3342L114.684 50.8042C114.131 50.2575 113.427 49.9842 112.574 49.9842C112.007 49.9842 111.494 50.1109 111.034 50.3642C110.581 50.6109 110.224 50.9575 109.964 51.4042C109.704 51.8442 109.574 52.3375 109.574 52.8842C109.574 53.4309 109.704 53.9242 109.964 54.3642C110.224 54.8042 110.581 55.1509 111.034 55.4042C111.487 55.6575 111.997 55.7842 112.564 55.7842C113.284 55.7842 113.894 55.6042 114.394 55.2442V52.8842ZM121.399 49.3842H122.139V56.3842H121.399V49.3842ZM133.566 55.7442V56.3842H128.616V49.3842H133.416V50.0242H129.356V52.5142H132.976V53.1442H129.356V55.7442H133.566ZM141.436 56.4442C140.916 56.4442 140.416 56.3609 139.936 56.1942C139.462 56.0275 139.096 55.8075 138.836 55.5342L139.126 54.9642C139.379 55.2175 139.716 55.4242 140.136 55.5842C140.556 55.7375 140.989 55.8142 141.436 55.8142C142.062 55.8142 142.532 55.7009 142.846 55.4742C143.159 55.2409 143.316 54.9409 143.316 54.5742C143.316 54.2942 143.229 54.0709 143.056 53.9042C142.889 53.7375 142.682 53.6109 142.436 53.5242C142.189 53.4309 141.846 53.3309 141.406 53.2242C140.879 53.0909 140.459 52.9642 140.146 52.8442C139.832 52.7175 139.562 52.5275 139.336 52.2742C139.116 52.0209 139.006 51.6775 139.006 51.2442C139.006 50.8909 139.099 50.5709 139.286 50.2842C139.472 49.9909 139.759 49.7575 140.146 49.5842C140.532 49.4109 141.012 49.3242 141.586 49.3242C141.986 49.3242 142.376 49.3809 142.756 49.4942C143.142 49.6009 143.476 49.7509 143.756 49.9442L143.506 50.5342C143.212 50.3409 142.899 50.1975 142.566 50.1042C142.232 50.0042 141.906 49.9542 141.586 49.9542C140.972 49.9542 140.509 50.0742 140.196 50.3142C139.889 50.5475 139.736 50.8509 139.736 51.2242C139.736 51.5042 139.819 51.7309 139.986 51.9042C140.159 52.0709 140.372 52.2009 140.626 52.2942C140.886 52.3809 141.232 52.4775 141.666 52.5842C142.179 52.7109 142.592 52.8375 142.906 52.9642C143.226 53.0842 143.496 53.2709 143.716 53.5242C143.936 53.7709 144.046 54.1075 144.046 54.5342C144.046 54.8875 143.949 55.2109 143.756 55.5042C143.569 55.7909 143.279 56.0209 142.886 56.1942C142.492 56.3609 142.009 56.4442 141.436 56.4442Z" fill="white"/>
<defs>
<linearGradient id="paint0_linear" x1="43.9947" y1="0.626316" x2="28.7421" y2="6.13421" gradientUnits="userSpaceOnUse">
<stop stop-color="#B55B01"/>
<stop offset="1" stop-color="#B50104"/>
</linearGradient>
<linearGradient id="paint1_linear" x1="14.3368" y1="-9.54205" x2="14.3368" y2="66.2974" gradientUnits="userSpaceOnUse">
<stop stop-color="#01C2BB"/>
<stop offset="1" stop-color="#007C78"/>
</linearGradient>
</defs>
</svg>
